<?xml version="1.0" encoding="UTF-8" standalone="no"?>
<!-- Created with Inkscape (http://www.inkscape.org/) -->

<svg
   version="1.1"
   id="svg898"
   width="682.66669"
   height="682.66669"
   viewBox="0 0 682.66669 682.66669"
   sodipodi:docname="ic_launcher_for_monochrome_xx.png"
   inkscape:version="1.1.2 (1:1.1+202205011109+08b2f3d93c)"
   xmlns:inkscape="http://www.inkscape.org/namespaces/inkscape"
   xmlns:sodipodi="http://sodipodi.sourceforge.net/DTD/sodipodi-0.dtd"
   xmlns="http://www.w3.org/2000/svg"
   xmlns:svg="http://www.w3.org/2000/svg">
  <defs
     id="defs902" />
  <sodipodi:namedview
     id="namedview900"
     pagecolor="#ffffff"
     bordercolor="#666666"
     borderopacity="1.0"
     inkscape:pageshadow="2"
     inkscape:pageopacity="0.0"
     inkscape:pagecheckerboard="0"
     showgrid="false"
     inkscape:zoom="1.2963867"
     inkscape:cx="483.2663"
     inkscape:cy="320.50622"
     inkscape:window-width="1844"
     inkscape:window-height="1136"
     inkscape:window-x="0"
     inkscape:window-y="0"
     inkscape:window-maximized="1"
     inkscape:current-layer="g1024" />
  <g
     inkscape:groupmode="layer"
     inkscape:label="Image"
     id="g904">
    <g
       id="g1024"
       transform="translate(-0.16873525,0.94613939)">
      <path
         style="fill:#000000;fill-opacity:1;stroke-width:1.33333"
         d="m 100.35274,561.94457 c -10.460134,-2.81704 -18.754092,-7.48496 -28.072082,-15.79926 -4.609801,-4.11324 -7.908776,-7.4977 -7.331056,-7.52102 0.57772,-0.0233 0.147102,-0.77334 -0.956932,-1.66667 -1.929481,-1.56128 -6.790832,-10.74039 -8.627832,-16.29094 -2.91666,-8.81274 -3.308764,-30.29244 -3.400294,-186.27034 l -0.100293,-170.91491 4.401211,-8.74072 c 5.505072,-10.93296 19.038117,-24.72889 29.259701,-29.82808 15.771137,-7.86767 2.667943,-7.4843 255.808177,-7.4843 252.77493,0 239.89789,-0.37192 255.75633,7.38689 10.07619,4.92981 23.74446,18.8684 29.27252,29.85145 4.10655,8.1588 7.88881,23.39119 5.43092,21.87214 -0.61953,-0.38291 -1.12642,74.53235 -1.12642,166.47832 0,179.72363 0.29512,171.36258 -6.52942,184.98289 -6.0382,12.05093 -15.34726,21.70847 -26.91252,27.91992 -15.99609,8.59115 0.1256,8.08881 -256.50487,7.99233 -196.44033,-0.0738 -234.49161,-0.38536 -240.36714,-1.9677 z m 470.73555,-37.20963 c 6.02534,-2.14892 9.71281,-5.26124 12.7149,-10.73178 2.00742,-3.65798 2.19683,-18.48861 2.19683,-172.00315 0,-188.01487 0.83156,-172.33712 -9.56131,-180.26442 l -4.89745,-3.73558 -227.43729,-0.36652 C 86.995572,157.21917 108.45069,156.32517 101.2023,167.7547 l -3.868963,6.10072 v 167.95515 167.95515 l 3.375163,5.7593 c 3.52146,6.0089 6.57185,8.28173 13.2915,9.90338 2.2,0.53092 104.80001,1.0004 228.00001,1.04328 185.7127,0.0647 224.86973,-0.23222 229.08828,-1.73674 z m -355.75495,-30.0749 c -26.87628,-2.4107 -33.19265,-5.63749 -37.76485,-19.29265 -5.60186,-16.73025 -5.93846,-26.59259 -5.1282,-150.25801 0.833,-127.13689 0.49661,-121.95652 8.40132,-129.37837 2.74128,-2.57384 7.26114,-4.43043 15.83088,-6.50271 24.66905,-5.96531 97.27761,-4.58643 118.28816,2.24636 7.32581,2.38241 12.2514,7.6152 14.67096,15.58597 2.52169,8.30723 2.47651,257.7114 -0.0481,266.05773 -2.65255,8.76894 -11.1817,16.5934 -20.26487,18.59058 -17.60041,3.86989 -66.59164,5.40821 -93.98522,2.9511 z m 43.08192,-16.0453 c 4.81606,-4.48683 3.6496,-10.8118 -2.58886,-14.03784 -4.38168,-2.26584 -7.66503,-1.16163 -11.09135,3.7301 -2.71744,3.8797 -2.61312,5.30754 0.69507,9.5132 3.37814,4.29463 8.8677,4.63052 12.98514,0.79454 z M 319.33334,328.00001 V 220.66667 h -67.33333 -67.33334 l -0.34453,106.00001 c -0.18948,58.3 -0.0561,106.75556 0.29623,107.67901 0.50582,1.32543 14.75848,1.60623 67.67787,1.33334 l 67.0371,-0.34568 z m -110,0.66667 v -63.33334 h 44 44 v 12 12 h -28 -28 v 12.66667 12.66667 h 26 26 v 12 12 h -26 -26 v 14.66667 14.66666 h 28.66667 28.66667 v 12 12 h -44.66667 -44.66667 z m 190.56411,140.76923 c -3.05666,-3.05665 -3.89744,-5.09221 -3.89744,-9.43589 0,-4.34368 0.84078,-6.37924 3.89744,-9.4359 l 3.89743,-3.89744 h 66.89675 c 64.91069,0 67.00867,0.0797 70.66728,2.68487 7.09242,5.05024 6.82216,16.95083 -0.48613,21.40712 -4.00148,2.43995 -7.438,2.56496 -70.64199,2.56969 l -66.43591,0.005 z m 1.4359,-76.24619 c -4.95055,-1.94248 -7.93698,-6.54831 -7.97035,-12.29227 -0.0403,-6.92618 5.34031,-12.34912 13.42024,-13.52594 3.23589,-0.47131 33.89016,-0.6727 68.1206,-0.44754 60.43979,0.39755 62.34341,0.48874 65.91594,3.15718 4.96768,3.71052 6.56467,8.93206 4.66799,15.2626 -2.82567,9.43124 -2.02902,9.334 -75.68926,9.23841 -39.20852,-0.0508 -66.45854,-0.60508 -68.46516,-1.39244 z m -4.10256,-82.42048 c -5.0515,-5.05148 -5.32562,-12.30059 -0.68455,-18.10256 l 3.19964,-4 68.12495,-0.36867 c 74.93066,-0.40551 74.06918,-0.49025 77.42727,7.61691 2.4172,5.83561 0.74492,12.73152 -3.88732,16.02996 -3.72849,2.65492 -5.49891,2.7218 -72.05248,2.7218 h -68.23009 z m -0.31466,-79.84219 c -5.21618,-5.44454 -5.0069,-13.06344 0.50388,-18.34426 l 4.08667,-3.91612 66.91334,-0.34865 c 65.03065,-0.33883 67.03618,-0.27316 71.27991,2.33395 7.60897,4.67457 8.86864,14.3991 2.71382,20.95061 l -2.87857,3.06409 H 470.01706 400.49892 Z M 52.210528,522.66668 c 0,-1.83333 0.302631,-2.58333 0.672515,-1.66666 0.369883,0.91666 0.369883,2.41666 0,3.33333 -0.369884,0.91667 -0.672515,0.16667 -0.672515,-1.66667 z m 577.228092,-0.77777 c 0.064,-1.55327 0.37992,-1.8692 0.80555,-0.80556 0.38516,0.96249 0.3378,2.11251 -0.1052,2.55556 -0.44306,0.44305 -0.75819,-0.34445 -0.7003,-1.75 z M 50.771931,516.55558 c 0.06397,-1.55327 0.379921,-1.8692 0.805556,-0.80556 0.385161,0.96249 0.337792,2.1125 -0.105267,2.55556 -0.443056,0.44305 -0.758188,-0.34446 -0.700293,-1.75 z m 580.000019,0 c 0.064,-1.55327 0.37992,-1.8692 0.80555,-0.80556 0.38516,0.96249 0.3378,2.1125 -0.1052,2.55556 -0.44305,0.44305 -0.75819,-0.34446 -0.70029,-1.75 z m 1.87442,-170.55557 c 4e-5,-92.4 0.15912,-130.00344 0.3535,-83.5632 0.1944,46.44024 0.19436,122.04024 -6e-5,168 -0.19444,45.95977 -0.35348,7.9632 -0.35344,-84.4368 z"
         id="path1028" />
    </g>
  </g>
</svg>
